<svg xmlns="http://www.w3.org/2000/svg" width="104" height="105" viewBox="0 0 104 105"><defs><mask id="xdi2b" width="2" height="2" x="-1" y="-1"><path fill="#fff" d="M17 13h70v70H17z"/><path d="M17 13h70v70H17z"/></mask><filter id="xdi2a" width="130" height="135" x="-13" y="-17" filterUnits="userSpaceOnUse"><feOffset dy="5" in="SourceGraphic" result="FeOffset1172Out"/><feGaussianBlur in="FeOffset1172Out" result="FeGaussianBlur1173Out" stdDeviation="8 8"/></filter></defs><g><g><g filter="url(#xdi2a)"><path fill="none" d="M17 13h70v70H17z" mask="url(&quot;#xdi2b&quot;)"/><path fill="#e3b873" fill-opacity=".5" d="M17 13h70v70H17z"/></g><path fill="#e3b873" d="M17 13h70v70H17z"/></g><g><path fill="#fff" d="M74 48.726a.644.644 0 0 1-.644.645h-.78v15.016a3.496 3.496 0 0 1-3.492 3.492H34.915a3.496 3.496 0 0 1-3.492-3.492V49.371h-.778a.645.645 0 0 1-.645-.645v-8.542a3.496 3.496 0 0 1 3.492-3.492h4.338V34.49c0-.356.289-.644.645-.644h1.49v-3.627c0-.356.29-.644.645-.644h5.05v-.78c0-.355.29-.644.645-.644h11.39c.355 0 .644.289.644.645v.779h5.05c.357 0 .645.288.645.644v3.627h1.491c.356 0 .645.288.645.644v2.203h4.338A3.496 3.496 0 0 1 74 40.184zM61.899 35.134v1.558h2.982v-1.558zm-14.95-4.137H57.05V29.44h-10.1zm-7.83 5.695h2.982v-1.558H39.12zm32.168 12.679h-4.406v1.558h.78c.356 0 .644.289.644.645v2.847a.645.645 0 0 1-.645.645h-.779v2.202a.644.644 0 0 1-.356.577l-2.847 1.424a.643.643 0 0 1-.577 0l-2.847-1.424a.644.644 0 0 1-.357-.577v-2.202h-.779a.645.645 0 0 1-.644-.645v-2.847c0-.356.288-.645.644-.645h.78v-1.558h-4.406v2.915a.645.645 0 0 1-.645.644h-5.695a.645.645 0 0 1-.644-.644V49.37h-4.406v1.558h.779c.356 0 .644.289.644.645v2.847a.645.645 0 0 1-.644.645h-.779v2.202a.644.644 0 0 1-.356.577l-2.848 1.424a.64.64 0 0 1-.576 0l-2.847-1.424a.644.644 0 0 1-.357-.577v-2.202h-.78a.645.645 0 0 1-.644-.645v-2.847c0-.356.29-.645.645-.645h.779v-1.558h-4.406v15.016c0 1.215.989 2.203 2.203 2.203h34.17a2.205 2.205 0 0 0 2.202-2.203zm-32.88 1.558h4.406v-4.406h-4.406v4.406zm5.83-5.695v-1.558h-7.253v1.558zm-7.253 6.984v1.558h7.253v-1.558zm1.423 2.848v1.804l2.203 1.102 2.203-1.102v-1.804zm11.39-5.695v2.27h4.406v-2.27h-1.559v.779a.644.644 0 1 1-1.289 0v-.78zm4.406-1.29v-.846h-4.406v.847zm6.984 2.848h4.405v-4.406h-4.405v4.406zm5.829-5.695v-1.558h-7.253v1.558zm-7.253 6.984v1.558h7.253v-1.558zm1.424 2.848v1.804l2.202 1.102 2.203-1.102v-1.804zm11.524-6.984v-7.898a2.205 2.205 0 0 0-2.203-2.203H48.175a.645.645 0 0 1 0-1.289H60.61v-2.203c0-.356.289-.644.645-.644h1.491v-2.982H58.34v.779a.644.644 0 0 1-.644.644h-11.39a.644.644 0 0 1-.645-.644v-.78h-4.405v2.983h1.49c.357 0 .646.288.646.644v2.203h2.202a.645.645 0 0 1 0 1.29H33.492a2.205 2.205 0 0 0-2.203 2.202v7.898h5.83v-1.558h-.78a.644.644 0 0 1-.644-.645v-2.203h-.068a.645.645 0 0 1 0-1.289h9.966a.644.644 0 1 1 0 1.29h-.067v2.202a.645.645 0 0 1-.645.644h-.779v1.559h4.406V46.59c0-.356.288-.645.644-.645h5.695c.356 0 .645.289.645.645v1.49h4.405v-1.558h-.779a.645.645 0 0 1-.644-.644v-2.203h-.067a.644.644 0 1 1 0-1.289h9.965a.644.644 0 1 1 0 1.29h-.067v2.202a.645.645 0 0 1-.645.644h-.779v1.559h5.83z"/></g></g></svg>