<svg xmlns="http://www.w3.org/2000/svg" width="104" height="105" viewBox="0 0 104 105"><defs><mask id="iyfab" width="2" height="2" x="-1" y="-1"><path fill="#fff" d="M17 13h70v70H17z"/><path d="M17 13h70v70H17z"/></mask><filter id="iyfaa" width="130" height="135" x="-13" y="-17" filterUnits="userSpaceOnUse"><feOffset dy="5" in="SourceGraphic" result="FeOffset1067Out"/><feGaussianBlur in="FeOffset1067Out" result="FeGaussianBlur1068Out" stdDeviation="8 8"/></filter></defs><g><g><g filter="url(#iyfaa)"><path fill="none" d="M17 13h70v70H17z" mask="url(&quot;#iyfab&quot;)"/><path fill="#e3b873" fill-opacity=".5" d="M17 13h70v70H17z"/></g><path fill="#e3b873" d="M17 13h70v70H17z"/></g><g/><g><path fill="#fff" d="M54.372 26c-8.99 0-16.305 7.314-16.305 16.305v2.674l-4.54 7.813a.645.645 0 0 0-.087.324v2.714c0 .356.289.645.645.645h3.982v4.338a3.496 3.496 0 0 0 3.492 3.492h1.312a.644.644 0 0 0 0-1.29h-1.312a2.205 2.205 0 0 1-2.202-2.202v-4.338h1.846a.645.645 0 0 0 .645-.645v-4.271a.645.645 0 0 0-.645-.644H39.78a.644.644 0 1 0 0 1.289h.779v2.982h-5.83v-1.559h2.203a.645.645 0 0 0 0-1.289h-1.65l3.979-6.847a.643.643 0 0 0 .095-.338v-2.848c0-8.28 6.736-15.016 15.016-15.016 8.28 0 15.016 6.736 15.016 15.016V48c0 6.193-3.703 11.654-9.445 13.948h-1.656a.644.644 0 1 0 0 1.289h1.136v5.474h-11.88v-4.406h1.49a.644.644 0 1 0 0-1.29h-3.58a.644.644 0 1 0 0 1.29h.8v5.05c0 .357.29.645.645.645h13.17a.644.644 0 0 0 .644-.644v-6.33a16.285 16.285 0 0 0 7.055-5.726 16.21 16.21 0 0 0 2.91-9.3v-5.695c0-8.99-7.314-16.305-16.305-16.305z"/></g><g><path fill="#fff" d="M54.365 33.12c4.673 0 8.474 3.802 8.474 8.475 0 1.74-.523 3.41-1.513 4.834a8.464 8.464 0 0 1-3.47 2.89v1.33h.068a.644.644 0 1 1 0 1.29h-.067v1.757a.645.645 0 0 1-.645.645h-.067v1.491a.645.645 0 0 1-.645.644h-4.27a.645.645 0 0 1-.645-.644v-1.491h-.068a.645.645 0 0 1-.644-.645v-1.758h-.067a.644.644 0 1 1 0-1.289h.067v-1.33a8.465 8.465 0 0 1-3.47-2.89 8.423 8.423 0 0 1-1.513-4.834c0-4.673 3.802-8.475 8.475-8.475zm-1.491 15.127h2.982v-3.672l-.324.323a.645.645 0 0 1-.911 0l-1.235-1.235h-.512zm2.982 6.094h-2.982v.846h2.982zm.712-2.403h-4.406v1.114h4.406zm0-1.289v-1.113h-4.406v1.113zm-9.389-9.054a7.142 7.142 0 0 0 4.406 6.627v-5.915a.645.645 0 0 1 1.289 0v.067h.779c.17 0 .335.068.456.189l.968.968.779-.78v-.444a.644.644 0 1 1 1.289 0v5.915a7.142 7.142 0 0 0 4.405-6.627c0-3.962-3.223-7.186-7.185-7.186-3.963 0-7.186 3.224-7.186 7.186z"/></g><g><path fill="#fff" d="M55.01 31.63v-2.135a.644.644 0 1 0-1.29 0v2.135a.644.644 0 1 0 1.29 0z"/></g><g><path fill="#fff" d="M46.2 32.609a.645.645 0 0 0-.911.911l1.51 1.51a.643.643 0 0 0 .911 0 .644.644 0 0 0 0-.911z"/></g><g><path fill="#fff" d="M44.3 41.04h-2.135a.645.645 0 0 0 0 1.29H44.3a.644.644 0 1 0 0-1.29z"/></g><g><path fill="#fff" d="M46.8 48.339l-1.511 1.51a.644.644 0 1 0 .911.911l1.51-1.51a.645.645 0 0 0-.91-.911z"/></g><g><path fill="#fff" d="M61.019 48.339a.644.644 0 0 0 0 .911l1.51 1.51a.643.643 0 0 0 .912 0 .645.645 0 0 0 0-.911l-1.51-1.51a.644.644 0 0 0-.912 0z"/></g><g><path fill="#fff" d="M66.55 42.33a.644.644 0 1 0 0-1.29h-2.135a.644.644 0 1 0 0 1.29z"/></g><g><path fill="#fff" d="M62.529 32.609l-1.51 1.51a.645.645 0 0 0 .911.912l1.51-1.51a.644.644 0 1 0-.911-.912z"/></g></g></svg>